HIERARCHY
ROOT Hips
{
  OFFSET 3.13124 94.3669 -3.18751
  CHANNELS  6 Xposition Yposition Zposition Zrotation Xrotation Yrotation
  JOINT LeftUpLeg
  {
    OFFSET 8.64259 1.95398 -2.38835
    CHANNELS 3 Zrotation Xrotation Yrotation
    JOINT LeftLeg
    {
      OFFSET 43.7702 0 0
      CHANNELS 3 Zrotation Xrotation Yrotation
      JOINT LeftFoot
      {
        OFFSET 40.6238 0 0
        CHANNELS 3 Zrotation Xrotation Yrotation
        JOINT LeftToeBase
        {
          OFFSET 12.7242 0 0
          CHANNELS 3 Zrotation Xrotation Yrotation
          End Site
          {
            OFFSET 0 0 0
          }
        }
      }
    }
  }
  JOINT RightUpLeg
  {
    OFFSET -8.2249 1.95398 -2.59336
    CHANNELS 3 Zrotation Xrotation Yrotation
    JOINT RightLeg
    {
      OFFSET 43.5653 0 0
      CHANNELS 3 Zrotation Xrotation Yrotation
      JOINT RightFoot
      {
        OFFSET 40.6238 0 0
        CHANNELS 3 Zrotation Xrotation Yrotation
        JOINT RightToeBase
        {
          OFFSET 12.7242 0 0
          CHANNELS 3 Zrotation Xrotation Yrotation
          End Site
          {
            OFFSET 0 0 0
          }
        }
      }
    }
  }
  JOINT Spine
  {
    OFFSET 0.165834 0.87714 6.61349
    CHANNELS 3 Zrotation Xrotation Yrotation
    JOINT Spine1
    {
      OFFSET 7.38962 1.71661e-005 0
      CHANNELS 3 Zrotation Xrotation Yrotation
      JOINT Spine2
      {
        OFFSET 11.9445 1.14441e-005 0
        CHANNELS 3 Zrotation Xrotation Yrotation
        JOINT Spine3
        {
          OFFSET 14.7254 4.19617e-005 0
          CHANNELS 3 Zrotation Xrotation Yrotation
          JOINT Spine4
          {
            OFFSET 10.9679 0 0
            CHANNELS 3 Zrotation Xrotation Yrotation
            JOINT RightShoulder
            {
              OFFSET 2.46616 -1.6653 3.69651
              CHANNELS 3 Zrotation Xrotation Yrotation
              JOINT RightArm
              {
                OFFSET 13.0012 0 0
                CHANNELS 3 Zrotation Xrotation Yrotation
                JOINT RightForeArm
                {
                  OFFSET 28.7848 1.52588e-005 0
                  CHANNELS 3 Zrotation Xrotation Yrotation
                  JOINT RightHand
                  {
                    OFFSET 26.5688 1.52588e-005 0
                    CHANNELS 3 Zrotation Xrotation Yrotation
                    End Site
                    {
                      OFFSET 0 0 0
                    }
                  }
                }
              }
            }
            JOINT LeftShoulder
            {
              OFFSET 2.38034 -1.29275 -3.75231
              CHANNELS 3 Zrotation Xrotation Yrotation
              JOINT LeftArm
              {
                OFFSET 16.3182 6.10352e-005 0
                CHANNELS 3 Zrotation Xrotation Yrotation
                JOINT LeftForeArm
                {
                  OFFSET 27.0901 0 0
                  CHANNELS 3 Zrotation Xrotation Yrotation
                  JOINT LeftHand
                  {
                    OFFSET 24.5451 1.52588e-005 0
                    CHANNELS 3 Zrotation Xrotation Yrotation
                    End Site
                    {
                      OFFSET 0 0 0
                    }
                  }
                }
              }
            }
            JOINT Neck
            {
              OFFSET 5.0226 -0.0266342 0
              CHANNELS 3 Zrotation Xrotation Yrotation
              JOINT Head
              {
                OFFSET 6.69363 2.86102e-005 0
                CHANNELS 3 Zrotation Xrotation Yrotation
                End Site
                {
                  OFFSET 0 0 0
                }
              }
            }
          }
        }
      }
    }
  }
}
MOTION
Frames:	13
Frame Time:	0.0333333
102.372 84.0461 2.69971 0.464627 67.4937 -166.759 -175.881 52.6466 121.512 -33.6114 -21.0165 -3.52518 55.4875 -4.26545 -3.16795 28.7808 7.25165e-006 1.36913e-005 -179.815 36.1527 90.2245 -3.85722 -0.866386 -0.0479541 36.4573 -26.2659 -24.1572 28.7808 1.65083e-005 2.62488e-005 -1.22895 9.84419 -87.6834 7.16829 -0.262048 2.70004 -4.50545 -0.143317 2.70894 -27.0209 -1.06091 2.49672 -7.00829 -1.06092 2.4967 98.421 -27.3998 -90.0895 55.4456 -17.715 26.1376 61.3782 3.60514 -90.7198 -1.70198 -0.671656 56.3559 -139.509 -54.2632 15.6261 -24.3837 -1.02924 -56.7285 -82.073 -39.4198 -87.9525 34.6073 -1.7929 -9.98712 -2.554 9.17843 51.8095 -1.37997 2.90834 -6.58849 
104.635 84.052 1.86278 -3.68828 67.456 -162.814 -175.53 51.3126 121.386 -29.8747 -20.267 -2.51172 52.7663 -4.42142 -3.51474 28.7808 7.25165e-006 1.36913e-005 -179.665 35.3881 91.2329 -3.93386 2.37672 0.138191 37.1808 -30.1001 -27.4987 28.7808 1.65083e-005 2.62488e-005 -0.896474 9.79817 -88.053 7.26992 -0.321176 2.86683 -4.40424 -0.193925 2.87908 -26.917 -1.17324 2.6323 -6.90432 -1.17325 2.63228 97.6082 -29.4137 -91.5025 55.0012 -17.8186 23.3767 56.8255 5.0131 -89.5579 -7.78433 -4.16924 55.0833 -138.092 -54.3222 17.2601 -24.7518 -5.40957 -83.9949 1.66114 -76.1571 -1.86623 44.7918 -0.750362 -5.7687 -2.72269 8.84416 50.6416 -0.678339 2.78203 -5.64627 
106.825 84.0025 0.815356 -15.4629 65.3125 -152.527 -175.652 50.3067 118.233 -23.767 -18.6178 -1.06311 48.8457 -4.04554 -3.5983 28.7808 7.25165e-006 1.36913e-005 179.614 36.3403 89.8384 -7.5007 6.80105 0.358028 41.5665 -33.7728 -28.9458 28.7808 1.65083e-005 2.62488e-005 -0.574189 9.72239 -88.9846 7.45072 -1.32089 2.9914 -4.2231 -1.1879 3.04666 -26.744 -2.15958 2.45958 -6.73136 -2.15958 2.45956 97.0699 -30.3996 -92.4448 56.3937 -19.2077 19.2808 52.4677 8.79614 -86.4346 -17.9026 -9.51563 52.1383 -137.292 -54.5007 18.2821 -23.4084 -8.28253 -80.1444 1.5796 -55.4342 -2.39628 58.0426 8.85407 10.9737 -3.43068 8.20567 49.5381 0.0602252 2.60916 -4.33106 
108.936 83.8064 -0.201804 -25.6543 63.755 -143.857 -174.977 48.4429 115.441 -18.5195 -16.1345 -0.17469 45.4392 -3.72694 -3.65154 28.7808 7.25165e-006 1.36913e-005 179.238 37.7386 88.5743 -14.1707 11.2652 0.546203 47.5747 -36.569 -28.4805 28.7808 1.65083e-005 2.62488e-005 -0.565601 9.75819 -89.4499 7.38682 -2.06027 2.97051 -4.28607 -1.92757 3.05875 -26.8175 -2.85763 2.21445 -6.80487 -2.85764 2.21447 96.8897 -30.779 -92.7448 56.6821 -19.1631 16.7195 51.7426 11.5045 -84.4742 -22.4858 -11.5136 49.932 -136.42 -54.7835 19.455 -21.8887 -11.3697 -74.0013 1.49519 -30.9716 -3.35743 48.3238 16.5069 29.5873 -3.65403 7.82182 47.9848 0.254247 2.54258 -2.50902 
110.914 83.5666 -0.9456 -31.3454 63.3218 -139.204 -174.309 46.4937 114.222 -15.051 -14.0906 0.324174 43.6096 -3.48125 -3.60582 28.7808 7.25165e-006 1.36913e-005 179.363 40.6871 88.244 -23.5055 15.0561 0.77995 54.0586 -37.5072 -26.2303 28.7808 1.65083e-005 2.62488e-005 -0.638105 9.81028 -89.5684 7.29459 -2.34235 2.91996 -4.37772 -2.21225 3.02045 -26.9149 -3.11087 2.07939 -6.90229 -3.1109 2.07938 96.7308 -30.8972 -93.0444 56.3429 -18.906 13.2172 52.7285 14.8215 -82.6956 -27.0371 -13.165 46.9528 -135.566 -55.2043 20.6975 -12.6071 -25.0227 -49.3087 -22.29 -36.4775 -39.498 -10.2672 -2.08199 22.6119 -3.37806 7.93014 46.7448 0.313873 2.68384 -1.29908 
112.723 83.3315 -1.68259 -34.0667 63.7405 -136.954 -173.505 44.858 114.273 -13.0697 -11.6793 0.780359 43.3851 -3.93025 -3.99443 28.7808 7.25165e-006 1.36913e-005 179.47 41.2513 88.9949 -27.3434 17.0415 0.97161 57.4146 -38.3245 -25.318 28.7808 1.65083e-005 2.62488e-005 -0.781756 9.80315 -89.479 7.30869 -2.35683 2.80676 -4.36335 -2.23195 2.90782 -26.9023 -3.08917 1.96524 -6.88961 -3.08918 1.96522 96.3011 -31.1504 -93.8608 52.1002 -12.2185 -0.180355 56.6747 31.9413 -75.6433 -22.5727 -14.1683 61.655 -133.782 -55.6002 22.9935 -8.76454 -25.4238 -58.8385 1.84901 -30.9443 -2.66322 5.49503 0.501918 2.97225 -3.1881 8.20296 45.5805 0.452598 3.0262 -0.087531 
114.448 82.9449 -2.55329 -37.2543 63.8052 -134.841 -172.888 43.3898 113.839 -11.6739 -9.97472 1.09365 44.9779 -4.67616 -4.45229 28.7808 7.25165e-006 1.36913e-005 179.522 42.057 88.9864 -31.7021 17.9504 1.02835 60.4463 -40.3625 -25.3683 28.7808 1.65083e-005 2.62488e-005 -1.01445 9.77509 -89.2886 7.36409 -2.48717 2.80737 -4.30772 -2.36116 2.91448 -26.8488 -3.21674 1.93194 -6.83613 -3.21674 1.93193 95.8215 -31.8141 -94.6879 50.4991 -2.90768 -28.0879 1.50596 61.9596 -8.14475 -8.26163 -6.47933 74.4173 -129.358 -55.4289 28.0982 -1.84862 -31.0425 -53.7508 1.64704 -44.7517 -2.57358 6.02651 1.22934 13.1952 -2.44033 8.78932 43.9703 0.222958 3.50549 0.971295 
116.032 82.4662 -3.37491 -40.9021 63.8615 -132.792 -172.468 41.686 113.153 -10.8173 -10.4099 1.26752 47.0468 -5.30194 -4.73281 28.7808 7.25165e-006 1.36913e-005 179.616 43.1887 88.802 -36.6529 20.8719 1.13399 63.1495 -40.1222 -23.9797 28.7808 1.65083e-005 2.62488e-005 -1.21272 9.77621 -89.074 7.36149 -2.58778 2.93003 -4.31045 -2.4563 3.04081 -26.8518 -3.34928 2.01816 -6.83919 -3.3493 2.01814 95.1715 -33.224 -95.6743 48.8111 -2.15214 -28.6098 1.97744 63.9707 -8.57982 -10.5911 -7.44759 67.8463 -124.058 -54.7955 34.1369 2.89353 -32.9682 -46.8984 1.64493 -44.9736 -2.57047 11.0314 1.86033 12.0861 -1.12866 9.47075 41.1457 -0.542971 4.0373 3.02346 
117.347 82.1271 -4.07275 -43.7611 63.8165 -131.134 -172.226 40.4659 112.855 -10.4606 -11.5495 1.34964 48.9188 -5.77455 -4.90716 28.7808 7.25165e-006 1.36913e-005 179.703 43.3652 88.5255 -39.3523 22.1291 1.15762 65.0057 -41.61 -24.0752 28.7808 1.65083e-005 2.62488e-005 -1.36337 9.73026 -88.9338 7.45078 -2.63467 2.88497 -4.22098 -2.50527 2.99806 -26.7639 -3.37882 1.9597 -6.75127 -3.37884 1.95968 94.2686 -34.1326 -97.2094 46.0553 -0.241833 -28.6114 4.3261 71.1325 -10.7949 -14.4395 -10.3359 68.229 -119.522 -54.3531 39.5689 6.96891 -34.261 -41.1975 1.63226 -46.3274 -2.55147 17.2857 2.98979 13.2776 0.0185629 9.98421 40.0066 -1.11036 4.24923 3.13177 
118.384 81.8568 -4.7631 -47.1508 63.6412 -128.669 -172.135 39.5019 112.615 -10.66 -13.0883 1.48539 51.1861 -5.7745 -4.64038 28.7808 7.25165e-006 1.36913e-005 179.773 43.152 88.359 -41.7148 23.4041 1.19992 66.6827 -41.9007 -23.476 28.7808 1.65083e-005 2.62488e-005 -1.47807 9.71328 -88.8431 7.47874 -2.66471 2.74284 -4.19265 -2.54094 2.85731 -26.7378 -3.36827 1.81584 -6.72515 -3.3683 1.81582 93.6567 -34.9971 -98.1668 43.4652 1.50522 -28.6633 7.09699 75.8006 -13.4779 -16.6467 -11.7197 67.1333 -114.723 -53.7033 45.3999 9.95938 -34.6495 -36.0614 1.64051 -45.4428 -2.56388 18.7104 3.3365 13.9723 0.140187 9.96356 37.0812 -0.518458 4.67814 6.19242 
119.213 81.6516 -5.35136 -50.2375 63.271 -126.567 -172.074 38.6377 112.092 -10.7858 -14.4348 1.68286 53.6955 -5.51303 -4.19131 28.7808 7.25165e-006 1.36913e-005 179.902 42.6635 87.8882 -43.2075 25.0731 1.29539 68.4215 -42.7921 -23.2197 28.7808 1.65083e-005 2.62488e-005 -1.45548 9.69052 -88.8949 7.51695 -2.54226 2.43444 -4.154 -2.43271 2.54393 -26.7003 -3.15626 1.55755 -6.68764 -3.15628 1.55754 93.0129 -35.1956 -99.2944 40.4999 3.48327 -28.4437 16.4893 81.6252 -22.785 -20.7828 -13.4369 61.6566 -112.496 -53.1634 48.0651 13.4273 -35.3019 -31.661 1.63675 -45.8448 -2.55825 15.7941 3.18686 15.8852 -1.50247 8.64706 36.5096 1.58814 4.11473 6.74739 
119.874 81.5728 -5.86157 -52.6141 62.8923 -124.912 -172.011 37.8548 111.682 -10.6826 -15.9169 1.7381 55.6627 -5.47112 -3.96264 28.7808 7.25165e-006 1.36913e-005 179.97 42.1534 87.6266 -44.0748 26.0439 1.354 69.5935 -42.8714 -22.7366 28.7808 1.65083e-005 2.62488e-005 -1.50519 9.60653 -88.7786 7.68323 -2.54904 2.56682 -3.98796 -2.43366 2.67651 -26.533 -3.20252 1.68344 -6.52032 -3.20254 1.68344 91.9528 -37.6632 -100.626 44.3903 -2.21959 -18.5648 54.694 58.1704 -64.7429 -43.0919 -12.7367 26.8967 -105.153 -50.7279 56.9511 13.1153 -34.2031 -28.8773 1.6682 -42.578 -2.604 14.4986 2.97622 16.0934 1.0098 10.0527 31.3021 -0.745187 5.35379 9.34699 
120.299 81.5166 -6.3327 -55.0206 62.5459 -123.414 -172.139 36.9599 111.037 -10.7984 -17.592 2.05584 57.8357 -5.66977 -3.86887 28.7808 7.25165e-006 1.36913e-005 -179.856 41.7948 86.9959 -45.5042 26.7771 1.38163 69.8901 -43.5117 -22.9572 28.7808 1.65083e-005 2.62488e-005 -1.50403 9.54557 -88.7141 7.80087 -2.45209 2.54321 -3.8705 -2.3379 2.6481 -26.4139 -3.10253 1.6906 -6.40121 -3.10254 1.69059 90.8584 -39.142 -102.171 41.4412 -0.76845 -16.2911 55.0258 50.6542 -67.1689 -40.7625 -14.0626 32.5832 -101.321 -48.8324 61.6446 13.5419 -33.6694 -26.5558 1.70173 -39.2917 -2.6502 13.3386 2.87534 16.9052 1.58802 10.0529 27.8114 -1.19016 5.69709 11.0379 
